<svg width="744" height="779" viewBox="0 0 744 779" fill="none" xmlns="http://www.w3.org/2000/svg">
<path d="M0 287C0 128.494 128.494 0 287 0H457C615.506 0 744 128.494 744 287V492C744 650.506 615.506 779 457 779H287C128.494 779 0 650.506 0 492V287Z" fill="#00D727"/>
<path d="M120.115 411.32C120.115 417.805 121.054 422.84 122.931 426.424C124.979 429.837 127.539 431.544 130.611 431.544C132.318 431.544 133.939 431.459 135.475 431.288C137.011 430.947 138.547 430.776 140.083 430.776C141.79 430.776 143.24 431.629 144.435 433.336C145.8 435.043 146.483 436.92 146.483 438.968C146.483 443.064 144.52 446.307 140.595 448.696C136.84 450.915 131.72 452.024 125.235 452.024C120.627 452.024 115.934 450.659 111.155 447.928C106.547 445.027 102.707 440.589 99.635 434.616C96.563 428.472 95.027 420.877 95.027 411.832C95.027 392.376 95.3683 375.907 96.051 362.424C96.9043 346.381 97.331 326.157 97.331 301.752C97.331 294.072 97.7577 288.696 98.611 285.624C99.635 283.235 101.256 281.443 103.475 280.248C105.864 278.883 108.339 278.2 110.899 278.2C113.459 278.2 115.678 278.627 117.555 279.48C119.603 280.333 120.968 281.699 121.651 283.576C122.334 285.624 122.76 287.672 122.931 289.72C123.272 291.597 123.443 294.328 123.443 297.912C123.443 304.909 123.187 311.651 122.675 318.136C122.334 325.987 122.163 331.704 122.163 335.288C120.798 365.325 120.115 390.669 120.115 411.32ZM161.895 396.728C161.895 390.243 163.09 383.757 165.479 377.272C167.868 370.616 171.026 364.557 174.951 359.096C178.876 353.635 185.106 349.197 193.639 345.784C202.172 342.2 209.767 340.408 216.423 340.408C223.25 340.408 230.162 341.347 237.159 343.224C244.327 345.101 249.276 348.003 252.007 351.928C258.322 360.803 261.479 369.507 261.479 378.04C261.479 382.648 260.455 386.573 258.407 389.816C256.53 393.059 253.799 396.557 250.215 400.312C247.314 403.384 242.706 405.432 236.391 406.456C230.247 407.48 224.103 407.992 217.959 407.992C214.034 407.992 209.255 407.651 203.623 406.968C197.991 406.115 192.53 405.091 187.239 403.896C187.58 407.309 188.434 410.637 189.799 413.88C191.164 417.123 192.786 419.597 194.663 421.304C198.076 424.547 201.575 426.595 205.159 427.448C208.914 428.301 213.692 428.728 219.495 428.728C225.639 428.728 231.356 427.704 236.647 425.656C240.914 424.12 244.412 423.352 247.143 423.352C250.386 423.352 252.86 424.376 254.567 426.424C256.274 428.301 257.127 430.776 257.127 433.848C257.127 438.115 254.652 441.613 249.703 444.344C244.754 447.075 239.036 449.123 232.551 450.488C226.236 451.683 221.116 452.28 217.191 452.28C209.17 452.28 201.404 450.829 193.895 447.928C186.386 445.027 180.156 440.931 175.207 435.64C171.111 430.861 167.868 425.144 165.479 418.488C163.09 411.661 161.895 404.408 161.895 396.728ZM217.703 362.168C213.948 362.168 210.194 362.936 206.439 364.472C202.684 365.837 199.612 367.8 197.223 370.36C194.151 373.603 192.018 376.248 190.823 378.296C189.799 380.173 189.116 382.819 188.775 386.232C193.042 387.597 201.916 388.28 215.399 388.28C222.738 388.28 228.37 387.171 232.295 384.952C236.391 382.733 238.439 379.832 238.439 376.248C238.439 372.664 236.22 369.421 231.783 366.52C227.346 363.619 222.652 362.168 217.703 362.168ZM388.599 427.704C391.5 429.923 393.463 432.056 394.487 434.104C395.511 436.152 396.023 438.712 396.023 441.784C396.023 444.344 394.658 446.733 391.927 448.952C389.367 451 386.978 452.024 384.759 452.024C382.882 452.024 380.663 451.427 378.103 450.232C375.543 449.037 373.58 447.672 372.215 446.136C370.338 444.6 366.668 440.845 361.207 434.872C355.916 428.899 351.991 424.205 349.431 420.792C343.287 413.112 340.215 409.272 340.215 409.272L331.255 398.264L314.871 411.576L315.895 439.48C315.895 444.088 314.7 447.331 312.311 449.208C310.092 451.085 307.874 452.024 305.655 452.024C302.412 452.024 299.511 451.427 296.951 450.232C294.562 449.037 293.111 447.672 292.599 446.136C290.722 439.309 289.783 430.349 289.783 419.256C289.783 398.435 290.124 381.795 290.807 369.336C291.49 353.805 291.831 339.128 291.831 325.304C291.831 321.037 291.319 315.149 290.295 307.64C290.124 306.104 289.868 303.629 289.527 300.216C289.186 296.803 289.015 293.731 289.015 291C289.015 287.075 290.295 284.003 292.855 281.784C295.586 279.565 299.084 278.456 303.351 278.456C306.764 278.456 309.495 279.565 311.543 281.784C313.762 283.832 314.871 286.733 314.871 290.488C314.871 296.12 315.042 303.544 315.383 312.76C315.724 321.976 315.895 328.717 315.895 332.984C315.895 338.275 315.724 345.357 315.383 354.232C315.042 359.011 314.871 362.595 314.871 364.984C314.871 372.493 314.956 378.723 315.127 383.672C321.271 377.357 329.463 370.019 339.703 361.656C350.114 353.123 358.22 347.149 364.023 343.736C370.508 339.811 374.434 337.848 375.799 337.848C379.383 337.848 382.455 338.616 385.015 340.152C387.575 341.688 388.855 343.992 388.855 347.064C388.855 350.136 388.428 352.525 387.575 354.232C386.722 355.768 385.186 357.389 382.967 359.096L349.943 383.16C357.282 392.205 364.876 401.421 372.727 410.808C380.578 420.024 385.868 425.656 388.599 427.704ZM447.419 288.696C447.419 293.133 447.334 298.339 447.163 304.312C446.992 310.115 446.822 314.552 446.651 317.624C446.139 326.328 445.883 335.032 445.883 343.736C445.883 355.171 446.139 364.387 446.651 371.384C450.576 361.656 456.123 354.317 463.291 349.368C470.459 344.248 478.651 341.688 487.867 341.688C494.182 341.688 500.07 344.504 505.531 350.136C510.992 355.768 514.491 362.339 516.027 369.848C516.198 370.701 516.283 371.981 516.283 373.688C516.283 375.736 516.112 378.979 515.771 383.416C515.259 387 515.003 390.584 515.003 394.168C515.003 403.384 515.344 410.552 516.027 415.672C516.71 420.621 518.16 424.717 520.379 427.96C522.598 431.032 526.096 433.507 530.875 435.384C532.752 436.067 534.032 437.005 534.715 438.2C535.568 439.224 535.995 440.845 535.995 443.064C535.995 446.136 534.374 448.44 531.131 449.976C528.059 451.512 525.072 452.28 522.171 452.28C516.198 452.28 510.822 450.659 506.043 447.416C501.264 444.173 497.68 439.907 495.291 434.616C493.584 431.032 492.475 426.765 491.963 421.816C491.451 416.867 491.195 411.064 491.195 404.408L491.451 382.136C491.451 370.019 487.526 363.96 479.675 363.96C474.043 363.96 468.582 368.568 463.291 377.784C458 387 453.734 397.837 450.491 410.296C447.248 422.755 445.627 432.995 445.627 441.016C445.627 444.771 444.432 447.587 442.043 449.464C439.824 451.171 437.52 452.024 435.131 452.024C431.376 452.024 427.963 450.915 424.891 448.696C421.819 446.307 420.283 443.661 420.283 440.76C421.478 427.96 422.075 406.541 422.075 376.504C422.075 371.043 421.648 350.819 420.795 315.832L420.027 292.28C420.027 288.525 421.734 285.283 425.147 282.552C428.56 279.651 432.4 278.2 436.667 278.2C440.422 278.2 443.152 279.053 444.859 280.76C446.566 282.467 447.419 285.112 447.419 288.696ZM649.973 452.024C644.17 452.024 639.733 451.171 636.661 449.464C633.589 447.587 630.261 444.173 626.677 439.224C622.24 443.149 615.584 446.307 606.709 448.696C598.005 451.085 590.496 452.28 584.181 452.28C573.77 452.28 565.322 449.464 558.837 443.832C552.522 438.029 549.365 429.581 549.365 418.488C549.365 413.709 550.645 409.357 553.205 405.432C555.936 401.336 559.434 397.752 563.701 394.68C568.48 391.437 574.112 388.877 580.597 387C587.253 385.123 593.312 384.184 598.773 384.184C607.989 384.184 616.181 385.037 623.349 386.744V386.488C623.349 377.272 621.045 370.957 616.437 367.544C612 363.96 604.832 362.168 594.933 362.168C588.618 362.168 583.157 364.984 578.549 370.616C576.842 372.835 573.258 373.944 567.797 373.944C565.066 373.944 563.018 372.835 561.653 370.616C560.458 368.227 559.861 365.837 559.861 363.448C559.861 358.499 561.909 354.232 566.005 350.648C570.272 347.064 575.392 344.419 581.365 342.712C587.338 340.835 592.885 339.896 598.005 339.896C602.954 339.896 608.842 340.92 615.669 342.968C622.496 345.016 628.042 347.747 632.309 351.16C637.429 355.597 641.354 360.803 644.085 366.776C646.986 372.579 648.437 378.979 648.437 385.976C648.437 388.195 648.266 391.523 647.925 395.96C647.584 401.08 647.413 405.261 647.413 408.504C647.413 410.04 647.242 412.003 646.901 414.392C646.56 417.464 646.389 420.024 646.389 422.072C646.389 424.291 647.072 426.424 648.437 428.472C649.802 430.52 651.68 432.227 654.069 433.592C656.288 434.787 657.738 436.067 658.421 437.432C659.104 438.797 659.445 440.333 659.445 442.04C659.445 443.747 658.336 445.88 656.117 448.44C654.069 450.829 652.021 452.024 649.973 452.024ZM598.773 403.128C592.117 403.128 586.229 404.408 581.109 406.968C575.989 409.528 573.429 414.051 573.429 420.536C573.429 423.779 574.538 426.509 576.757 428.728C579.146 430.947 581.706 432.056 584.437 432.056C591.776 432.056 597.92 431.288 602.869 429.752C607.818 428.216 613.792 425.4 620.789 421.304C621.642 418.573 622.154 414.733 622.325 409.784C622.325 407.907 622.41 406.456 622.581 405.432C613.365 403.896 605.429 403.128 598.773 403.128Z" fill="#FBFFFC"/>
</svg>
