<svg width="565" height="175" viewBox="0 0 565 175" fill="none" xmlns="http://www.w3.org/2000/svg">
<path d="M25.115 133.32C25.115 139.805 26.0537 144.84 27.931 148.424C29.979 151.837 32.539 153.544 35.611 153.544C37.3177 153.544 38.939 153.459 40.475 153.288C42.011 152.947 43.547 152.776 45.083 152.776C46.7897 152.776 48.2403 153.629 49.435 155.336C50.8003 157.043 51.483 158.92 51.483 160.968C51.483 165.064 49.5203 168.307 45.595 170.696C41.8403 172.915 36.7203 174.024 30.235 174.024C25.627 174.024 20.9337 172.659 16.155 169.928C11.547 167.027 7.707 162.589 4.635 156.616C1.563 150.472 0.0270004 142.877 0.0270004 133.832C0.0270004 114.376 0.368334 97.9067 1.051 84.424C1.90433 68.3813 2.331 48.1573 2.331 23.752C2.331 16.072 2.75767 10.696 3.611 7.62399C4.635 5.23466 6.25633 3.44266 8.475 2.24799C10.8643 0.88266 13.339 0.199997 15.899 0.199997C18.459 0.199997 20.6777 0.626663 22.555 1.48C24.603 2.33333 25.9683 3.69866 26.651 5.57599C27.3337 7.62399 27.7603 9.67199 27.931 11.72C28.2723 13.5973 28.443 16.328 28.443 19.912C28.443 26.9093 28.187 33.6507 27.675 40.136C27.3337 47.9867 27.163 53.704 27.163 57.288C25.7977 87.3253 25.115 112.669 25.115 133.32ZM66.895 118.728C66.895 112.243 68.0897 105.757 70.479 99.272C72.8683 92.616 76.0257 86.5573 79.951 81.096C83.8763 75.6347 90.1057 71.1973 98.639 67.784C107.172 64.2 114.767 62.408 121.423 62.408C128.25 62.408 135.162 63.3467 142.159 65.224C149.327 67.1013 154.276 70.0027 157.007 73.928C163.322 82.8027 166.479 91.5067 166.479 100.04C166.479 104.648 165.455 108.573 163.407 111.816C161.53 115.059 158.799 118.557 155.215 122.312C152.314 125.384 147.706 127.432 141.391 128.456C135.247 129.48 129.103 129.992 122.959 129.992C119.034 129.992 114.255 129.651 108.623 128.968C102.991 128.115 97.5297 127.091 92.239 125.896C92.5803 129.309 93.4337 132.637 94.799 135.88C96.1643 139.123 97.7857 141.597 99.663 143.304C103.076 146.547 106.575 148.595 110.159 149.448C113.914 150.301 118.692 150.728 124.495 150.728C130.639 150.728 136.356 149.704 141.647 147.656C145.914 146.12 149.412 145.352 152.143 145.352C155.386 145.352 157.86 146.376 159.567 148.424C161.274 150.301 162.127 152.776 162.127 155.848C162.127 160.115 159.652 163.613 154.703 166.344C149.754 169.075 144.036 171.123 137.551 172.488C131.236 173.683 126.116 174.28 122.191 174.28C114.17 174.28 106.404 172.829 98.895 169.928C91.3857 167.027 85.1563 162.931 80.207 157.64C76.111 152.861 72.8683 147.144 70.479 140.488C68.0897 133.661 66.895 126.408 66.895 118.728ZM122.703 84.168C118.948 84.168 115.194 84.936 111.439 86.472C107.684 87.8373 104.612 89.8 102.223 92.36C99.151 95.6027 97.0177 98.248 95.823 100.296C94.799 102.173 94.1163 104.819 93.775 108.232C98.0417 109.597 106.916 110.28 120.399 110.28C127.738 110.28 133.37 109.171 137.295 106.952C141.391 104.733 143.439 101.832 143.439 98.248C143.439 94.664 141.22 91.4213 136.783 88.52C132.346 85.6187 127.652 84.168 122.703 84.168ZM293.599 149.704C296.5 151.923 298.463 154.056 299.487 156.104C300.511 158.152 301.023 160.712 301.023 163.784C301.023 166.344 299.658 168.733 296.927 170.952C294.367 173 291.978 174.024 289.759 174.024C287.882 174.024 285.663 173.427 283.103 172.232C280.543 171.037 278.58 169.672 277.215 168.136C275.338 166.6 271.668 162.845 266.207 156.872C260.916 150.899 256.991 146.205 254.431 142.792C248.287 135.112 245.215 131.272 245.215 131.272L236.255 120.264L219.871 133.576L220.895 161.48C220.895 166.088 219.7 169.331 217.311 171.208C215.092 173.085 212.874 174.024 210.655 174.024C207.412 174.024 204.511 173.427 201.951 172.232C199.562 171.037 198.111 169.672 197.599 168.136C195.722 161.309 194.783 152.349 194.783 141.256C194.783 120.435 195.124 103.795 195.807 91.336C196.49 75.8053 196.831 61.128 196.831 47.304C196.831 43.0373 196.319 37.1493 195.295 29.64C195.124 28.104 194.868 25.6293 194.527 22.216C194.186 18.8027 194.015 15.7307 194.015 13C194.015 9.07467 195.295 6.00267 197.855 3.784C200.586 1.56533 204.084 0.455994 208.351 0.455994C211.764 0.455994 214.495 1.56533 216.543 3.784C218.762 5.83199 219.871 8.73332 219.871 12.488C219.871 18.12 220.042 25.544 220.383 34.76C220.724 43.976 220.895 50.7173 220.895 54.984C220.895 60.2747 220.724 67.3573 220.383 76.232C220.042 81.0107 219.871 84.5947 219.871 86.984C219.871 94.4933 219.956 100.723 220.127 105.672C226.271 99.3573 234.463 92.0187 244.703 83.656C255.114 75.1227 263.22 69.1493 269.023 65.736C275.508 61.8107 279.434 59.848 280.799 59.848C284.383 59.848 287.455 60.616 290.015 62.152C292.575 63.688 293.855 65.992 293.855 69.064C293.855 72.136 293.428 74.5253 292.575 76.232C291.722 77.768 290.186 79.3893 287.967 81.096L254.943 105.16C262.282 114.205 269.876 123.421 277.727 132.808C285.578 142.024 290.868 147.656 293.599 149.704ZM352.419 10.696C352.419 15.1333 352.334 20.3387 352.163 26.312C351.992 32.1147 351.822 36.552 351.651 39.624C351.139 48.328 350.883 57.032 350.883 65.736C350.883 77.1707 351.139 86.3867 351.651 93.384C355.576 83.656 361.123 76.3173 368.291 71.368C375.459 66.248 383.651 63.688 392.867 63.688C399.182 63.688 405.07 66.504 410.531 72.136C415.992 77.768 419.491 84.3387 421.027 91.848C421.198 92.7013 421.283 93.9813 421.283 95.688C421.283 97.736 421.112 100.979 420.771 105.416C420.259 109 420.003 112.584 420.003 116.168C420.003 125.384 420.344 132.552 421.027 137.672C421.71 142.621 423.16 146.717 425.379 149.96C427.598 153.032 431.096 155.507 435.875 157.384C437.752 158.067 439.032 159.005 439.715 160.2C440.568 161.224 440.995 162.845 440.995 165.064C440.995 168.136 439.374 170.44 436.131 171.976C433.059 173.512 430.072 174.28 427.171 174.28C421.198 174.28 415.822 172.659 411.043 169.416C406.264 166.173 402.68 161.907 400.291 156.616C398.584 153.032 397.475 148.765 396.963 143.816C396.451 138.867 396.195 133.064 396.195 126.408L396.451 104.136C396.451 92.0187 392.526 85.96 384.675 85.96C379.043 85.96 373.582 90.568 368.291 99.784C363 109 358.734 119.837 355.491 132.296C352.248 144.755 350.627 154.995 350.627 163.016C350.627 166.771 349.432 169.587 347.043 171.464C344.824 173.171 342.52 174.024 340.131 174.024C336.376 174.024 332.963 172.915 329.891 170.696C326.819 168.307 325.283 165.661 325.283 162.76C326.478 149.96 327.075 128.541 327.075 98.504C327.075 93.0427 326.648 72.8187 325.795 37.832L325.027 14.28C325.027 10.5253 326.734 7.28266 330.147 4.55199C333.56 1.65066 337.4 0.199997 341.667 0.199997C345.422 0.199997 348.152 1.05333 349.859 2.75999C351.566 4.46666 352.419 7.11199 352.419 10.696ZM554.973 174.024C549.17 174.024 544.733 173.171 541.661 171.464C538.589 169.587 535.261 166.173 531.677 161.224C527.24 165.149 520.584 168.307 511.709 170.696C503.005 173.085 495.496 174.28 489.181 174.28C478.77 174.28 470.322 171.464 463.837 165.832C457.522 160.029 454.365 151.581 454.365 140.488C454.365 135.709 455.645 131.357 458.205 127.432C460.936 123.336 464.434 119.752 468.701 116.68C473.48 113.437 479.112 110.877 485.597 109C492.253 107.123 498.312 106.184 503.773 106.184C512.989 106.184 521.181 107.037 528.349 108.744V108.488C528.349 99.272 526.045 92.9573 521.437 89.544C517 85.96 509.832 84.168 499.933 84.168C493.618 84.168 488.157 86.984 483.549 92.616C481.842 94.8347 478.258 95.944 472.797 95.944C470.066 95.944 468.018 94.8347 466.653 92.616C465.458 90.2267 464.861 87.8373 464.861 85.448C464.861 80.4987 466.909 76.232 471.005 72.648C475.272 69.064 480.392 66.4187 486.365 64.712C492.338 62.8347 497.885 61.896 503.005 61.896C507.954 61.896 513.842 62.92 520.669 64.968C527.496 67.016 533.042 69.7467 537.309 73.16C542.429 77.5973 546.354 82.8027 549.085 88.776C551.986 94.5787 553.437 100.979 553.437 107.976C553.437 110.195 553.266 113.523 552.925 117.96C552.584 123.08 552.413 127.261 552.413 130.504C552.413 132.04 552.242 134.003 551.901 136.392C551.56 139.464 551.389 142.024 551.389 144.072C551.389 146.291 552.072 148.424 553.437 150.472C554.802 152.52 556.68 154.227 559.069 155.592C561.288 156.787 562.738 158.067 563.421 159.432C564.104 160.797 564.445 162.333 564.445 164.04C564.445 165.747 563.336 167.88 561.117 170.44C559.069 172.829 557.021 174.024 554.973 174.024ZM503.773 125.128C497.117 125.128 491.229 126.408 486.109 128.968C480.989 131.528 478.429 136.051 478.429 142.536C478.429 145.779 479.538 148.509 481.757 150.728C484.146 152.947 486.706 154.056 489.437 154.056C496.776 154.056 502.92 153.288 507.869 151.752C512.818 150.216 518.792 147.4 525.789 143.304C526.642 140.573 527.154 136.733 527.325 131.784C527.325 129.907 527.41 128.456 527.581 127.432C518.365 125.896 510.429 125.128 503.773 125.128Z" fill="#00D727"/>
</svg>
